<svg xmlns="http://www.w3.org/2000/svg" width="1em" height="1em" viewBox="0 0 24 24" fill="none">
    <path
            d="M20.2289 12.1532H11.8477V3.77193C11.8477 3.6688 11.7633 3.58443 11.6602 3.58443H11.0508C9.82098 3.58317 8.60303 3.82476 7.46681 4.29534C6.3306 4.76591 5.29848 5.4562 4.42969 6.32662C3.5743 7.17936 2.8929 8.19031 2.42344 9.30318C1.93594 10.4586 1.6875 11.6844 1.6875 12.9501C1.6875 14.2157 1.93594 15.4391 2.42344 16.5946C2.89453 17.7079 3.56953 18.711 4.42969 19.5711C5.28984 20.4313 6.29062 21.1063 7.40625 21.5774C8.5597 22.0667 9.80017 22.3179 11.0531 22.3157C12.2829 22.3169 13.5009 22.0753 14.6371 21.6048C15.7733 21.1342 16.8054 20.4439 17.6742 19.5735C18.5344 18.7133 19.2094 17.7126 19.6805 16.5969C20.1698 15.4435 20.4209 14.203 20.4187 12.9501V12.3407C20.4164 12.2376 20.332 12.1532 20.2289 12.1532ZM22.2891 10.8524L22.2281 10.1915C22.0289 8.03521 21.0727 6.00083 19.5305 4.46568C17.9897 2.92622 15.9594 1.97364 13.7906 1.77271L13.1273 1.71177C13.0172 1.7024 12.9234 1.78677 12.9234 1.89693V10.8899C12.9234 10.993 13.0078 11.0774 13.1109 11.0774L22.1016 11.054C22.2117 11.0516 22.2984 10.9602 22.2891 10.8524Z"
            fill="currentColor"
    />
</svg>
