<svg xmlns="http://www.w3.org/2000/svg" width="1em" height="1em" viewBox="0 0 25 25" fill="none">
    <path
            d="M10.7143 10.7143H14.2857V14.2857H10.7143V10.7143ZM25 15.1786C25 15.4154 24.9059 15.6425 24.7385 15.8099C24.571 15.9774 24.3439 16.0714 24.1071 16.0714H22.3214V20.5357C22.3214 21.0093 22.1333 21.4635 21.7984 21.7984C21.4635 22.1333 21.0093 22.3214 20.5357 22.3214H16.0714V24.1071C16.0714 24.3439 15.9774 24.571 15.8099 24.7385C15.6425 24.9059 15.4154 25 15.1786 25C14.9418 25 14.7147 24.9059 14.5472 24.7385C14.3798 24.571 14.2857 24.3439 14.2857 24.1071V22.3214H10.7143V24.1071C10.7143 24.3439 10.6202 24.571 10.4528 24.7385C10.2853 24.9059 10.0582 25 9.82143 25C9.58463 25 9.35753 24.9059 9.19008 24.7385C9.02264 24.571 8.92857 24.3439 8.92857 24.1071V22.3214H4.46429C3.99068 22.3214 3.53648 22.1333 3.20159 21.7984C2.86671 21.4635 2.67857 21.0093 2.67857 20.5357V16.0714H0.892857C0.656057 16.0714 0.428955 15.9774 0.261512 15.8099C0.0940686 15.6425 0 15.4154 0 15.1786C0 14.9418 0.0940686 14.7147 0.261512 14.5472C0.428955 14.3798 0.656057 14.2857 0.892857 14.2857H2.67857V10.7143H0.892857C0.656057 10.7143 0.428955 10.6202 0.261512 10.4528C0.0940686 10.2853 0 10.0582 0 9.82143C0 9.58463 0.0940686 9.35753 0.261512 9.19008C0.428955 9.02264 0.656057 8.92857 0.892857 8.92857H2.67857V4.46429C2.67857 3.99068 2.86671 3.53648 3.20159 3.20159C3.53648 2.86671 3.99068 2.67857 4.46429 2.67857H8.92857V0.892857C8.92857 0.656057 9.02264 0.428955 9.19008 0.261512C9.35753 0.0940686 9.58463 0 9.82143 0C10.0582 0 10.2853 0.0940686 10.4528 0.261512C10.6202 0.428955 10.7143 0.656057 10.7143 0.892857V2.67857H14.2857V0.892857C14.2857 0.656057 14.3798 0.428955 14.5472 0.261512C14.7147 0.0940686 14.9418 0 15.1786 0C15.4154 0 15.6425 0.0940686 15.8099 0.261512C15.9774 0.428955 16.0714 0.656057 16.0714 0.892857V2.67857H20.5357C21.0093 2.67857 21.4635 2.86671 21.7984 3.20159C22.1333 3.53648 22.3214 3.99068 22.3214 4.46429V8.92857H24.1071C24.3439 8.92857 24.571 9.02264 24.7385 9.19008C24.9059 9.35753 25 9.58463 25 9.82143C25 10.0582 24.9059 10.2853 24.7385 10.4528C24.571 10.6202 24.3439 10.7143 24.1071 10.7143H22.3214V14.2857H24.1071C24.3439 14.2857 24.571 14.3798 24.7385 14.5472C24.9059 14.7147 25 14.9418 25 15.1786ZM16.0714 9.82143C16.0714 9.58463 15.9774 9.35753 15.8099 9.19008C15.6425 9.02264 15.4154 8.92857 15.1786 8.92857H9.82143C9.58463 8.92857 9.35753 9.02264 9.19008 9.19008C9.02264 9.35753 8.92857 9.58463 8.92857 9.82143V15.1786C8.92857 15.4154 9.02264 15.6425 9.19008 15.8099C9.35753 15.9774 9.58463 16.0714 9.82143 16.0714H15.1786C15.4154 16.0714 15.6425 15.9774 15.8099 15.8099C15.9774 15.6425 16.0714 15.4154 16.0714 15.1786V9.82143Z"
            fill="currentColor"
    />
</svg>
