<svg width="1em" height="1em" viewBox="90 170 305 60" xmlns="http://www.w3.org/2000/svg">
<path d="M98.207 199.901C98.207 186.523 109.572 178 125.198 178C140.824 178 149.585 185.399 149.881 196.29L136.385 196.704C136.03 190.667 130.673 186.701 125.198 186.819C117.681 186.967 112.117 191.969 112.117 199.901C112.117 207.832 117.681 212.745 125.198 212.745C130.673 212.745 135.911 208.957 136.503 202.919L149.999 203.215C149.644 214.284 140.351 221.801 125.198 221.801C110.045 221.801 98.207 213.218 98.207 199.901Z" fill="#090B0B"/>
<path d="M274.892 187.767H296.2V179.184H261.396V220.617H296.615V211.739H274.892V203.57H293.537V195.698H274.892V187.767Z" fill="#090B0B"/>
<path d="M351.928 179.184H387.442V220.617H351.928V179.184Z" fill="#090B0B"/>
<path fill-rule="evenodd" clip-rule="evenodd" d="M154.763 199.901C154.763 186.701 165.447 178 180.807 178C196.167 178 206.851 186.642 206.851 199.901C206.851 213.159 196.167 221.801 180.807 221.801C165.447 221.801 154.763 213.1 154.763 199.901ZM168.673 199.901C168.673 207.595 173.675 212.863 180.807 212.863C187.999 212.863 192.941 207.714 192.941 199.901C192.941 192.087 187.94 186.701 180.807 186.701C173.675 186.701 168.673 192.206 168.673 199.901Z" fill="#090B0B"/>
<path fill-rule="evenodd" clip-rule="evenodd" d="M211.616 220.617V179.184H228.781C245.414 179.184 256.601 186.938 256.601 199.901C256.601 212.863 245.414 220.617 228.781 220.617H211.616ZM225.23 212.331H228.189C236.95 212.331 242.809 207.832 242.809 199.901C242.809 191.969 236.95 187.411 228.189 187.411H225.23V212.331Z" fill="#090B0B"/>
<path fill-rule="evenodd" clip-rule="evenodd" d="M330.619 201.38C338.817 201.913 342.694 206.145 344.292 212.627L345.949 220.617H330.382L329.08 213.219C327.955 208.424 324.108 206.708 319.787 206.708H316.176V220.617H302.562V179.184H324.167C336.597 179.184 344.173 183.742 344.173 191.14C344.173 197.237 339.024 201.025 330.619 201.025V201.38ZM316.176 199.427H322.983C327.659 199.427 330.56 197.059 330.56 193.271C330.56 189.483 327.659 187.175 322.983 187.175H316.176V199.427Z" fill="#090B0B"/>
</svg>
