<svg width="1em" height="1em" viewBox="0 0 12 12" fill="none" xmlns="http://www.w3.org/2000/svg">
    <g clip-path="url(#clip0_662_6260)">
        <path d="M10.0412 7.6997H3.06342C2.12356 7.6997 1.36151 6.94183 1.36151 6.00712C1.36151 5.07242 2.12356 4.31454 3.06342 4.31454H10.0412C11.263 4.31454 12.2537 3.32926 12.2537 2.11418C12.2537 0.899104 11.263 -0.0861816 10.0412 -0.0861816H5.78646C4.56469 -0.0861816 3.57399 0.899104 3.57399 2.11418H4.9355C4.9355 1.64662 5.31633 1.26789 5.78646 1.26789H10.0412C10.5113 1.26789 10.8922 1.64662 10.8922 2.11418C10.8922 2.58173 10.5113 2.96047 10.0412 2.96047H3.06342C1.37153 2.96047 0 4.32449 0 6.00712C0 7.68975 1.37153 9.05374 3.06342 9.05374H10.0412C10.5113 9.05374 10.8922 9.43249 10.8922 9.90003C10.8922 10.3677 10.5113 10.7463 10.0412 10.7463H5.78646C5.31633 10.7463 4.9355 10.3677 4.9355 9.90003H3.57399C3.57399 11.1151 4.56469 12.1004 5.78646 12.1004H10.0412C11.263 12.1004 12.2537 11.1151 12.2537 9.90003C12.2537 8.68499 11.263 7.6997 10.0412 7.6997Z"
              fill="#29006B"/>
        <path d="M3.40368 6.85335C3.87364 6.85335 4.25463 6.47445 4.25463 6.00706C4.25463 5.53967 3.87364 5.16077 3.40368 5.16077C2.93372 5.16077 2.55273 5.53967 2.55273 6.00706C2.55273 6.47445 2.93372 6.85335 3.40368 6.85335Z"
              fill="#29006B"/>
        <path d="M6.63708 6.85335C7.10704 6.85335 7.48803 6.47445 7.48803 6.00706C7.48803 5.53967 7.10704 5.16077 6.63708 5.16077C6.16712 5.16077 5.78613 5.53967 5.78613 6.00706C5.78613 6.47445 6.16712 6.85335 6.63708 6.85335Z"
              fill="#29006B"/>
        <path d="M9.87048 6.85335C10.3404 6.85335 10.7215 6.47445 10.7215 6.00706C10.7215 5.53967 10.3404 5.16077 9.87048 5.16077C9.40054 5.16077 9.01953 5.53967 9.01953 6.00706C9.01953 6.47445 9.40054 6.85335 9.87048 6.85335Z"
              fill="#29006B"/>
    </g>
    <defs>
        <clipPath id="clip0_662_6260">
            <rect width="12" height="12" fill="white"/>
        </clipPath>
    </defs>
</svg>
