<?xml version="1.0" encoding="utf-8"?>
<svg viewBox="528.97 250.201 48 48" xmlns="http://www.w3.org/2000/svg">
  <rect x="531.97" y="252.201" width="38" height="38" rx="4" fill="transparent" stroke="currentColor" stroke-width="2" style="transform-origin: 550.97px 271.201px;"/>

  <!-- Databricks Logo - Scaled and Centered -->
  <g transform="translate(540, 260.5) scale(0.9)">
    <path d="M.95 14.184 12 20.403l9.919-5.55v2.21L12 22.662l-10.484-5.96-.565.308v.77L12 24l11.05-6.218v-4.317l-.515-.309L12 19.118l-9.867-5.653v-2.21L12 16.805l11.05-6.218V6.32l-.515-.308L12 11.974 2.647 6.681 12 1.388l7.76 4.368.668-.411v-.566L12 0 .95 6.27v.72L12 13.207l9.919-5.55v2.26L12 15.52 1.516 9.56l-.565.308z" fill="currentColor"/>
  </g>
</svg>
