<svg width="53" height="53" viewBox="0 0 53 53" fill="none" xmlns="http://www.w3.org/2000/svg">
    <g clip-path="url(#clip0_762_6323)">
        <path fill-rule="evenodd" clip-rule="evenodd"
              d="M52.5297 11.525C52.5297 10.677 51.3329 9.8001 49.3924 9.07737C47.1613 8.23901 44.0583 7.71864 40.6047 7.71864C37.1512 7.71864 34.0481 8.23901 31.817 9.07737C29.8765 9.80973 28.6797 10.677 28.6797 11.525C28.6797 12.373 29.8765 13.2403 31.817 13.9726C34.0481 14.811 37.1512 15.3314 40.6047 15.3314C44.0583 15.3314 47.1613 14.811 49.3924 13.9726C51.3329 13.2403 52.5297 12.373 52.5297 11.525ZM28.6797 34.5077V41.4748C28.6797 42.3228 29.8765 43.1901 31.817 43.9225C34.0481 44.7608 37.1512 45.2812 40.6047 45.2812C44.0583 45.2812 47.1613 44.7608 49.3924 43.9225C51.3329 43.1901 52.5297 42.3228 52.5297 41.4748V34.5077C51.8373 35.0185 50.9739 35.481 49.9566 35.8568C47.546 36.7626 44.2378 37.3216 40.6047 37.3216C36.9716 37.3216 33.6634 36.7626 31.2528 35.8568C30.2355 35.4714 29.3721 35.0185 28.6797 34.5077ZM28.6797 24.5245C29.3721 25.0352 30.2355 25.4977 31.2528 25.8736C33.6634 26.7794 36.9716 27.3383 40.6047 27.3383C44.2378 27.3383 47.546 26.7794 49.9566 25.8736C50.9739 25.4881 51.8373 25.0352 52.5297 24.5245V31.4916C52.5297 32.3396 51.3329 33.2068 49.3924 33.9392C47.1613 34.7776 44.0583 35.2979 40.6047 35.2979C37.1512 35.2979 34.0481 34.7776 31.817 33.9392C29.8765 33.2068 28.6797 32.3396 28.6797 31.4916V24.5245ZM52.5297 14.5412V21.5083C52.5297 22.3563 51.3329 23.2236 49.3924 23.9559C47.1613 24.7943 44.0583 25.3146 40.6047 25.3146C37.1512 25.3146 34.0481 24.7943 31.817 23.9559C29.8765 23.2236 28.6797 22.3563 28.6797 21.5083V14.5412C29.3721 15.0519 30.2355 15.5145 31.2528 15.8903C33.6634 16.7961 36.9716 17.355 40.6047 17.355C44.2378 17.355 47.546 16.7961 49.9566 15.8903C50.9739 15.5048 51.8373 15.0519 52.5297 14.5412ZM39.1857 22.2503C41.2886 22.443 43.3316 22.3563 45.3149 21.9997C47.2981 21.6432 49.2044 21.0168 51.0337 20.111C51.4868 19.8894 51.7005 19.2919 51.4954 18.7812C51.2987 18.2705 50.7687 18.0296 50.3157 18.2608C48.6231 19.0896 46.8621 19.6774 45.0328 20.005C43.2034 20.3326 41.3057 20.4097 39.331 20.2266C38.8352 20.1785 38.3992 20.6025 38.365 21.1614C38.3223 21.7203 38.6984 22.2117 39.1942 22.2503H39.1857ZM39.1857 32.2046C41.2886 32.3974 43.3316 32.3106 45.3149 31.9541C47.2981 31.5976 49.2044 30.9712 51.0337 30.0654C51.4868 29.8437 51.7005 29.2463 51.4954 28.7356C51.2987 28.2248 50.7687 27.9839 50.3157 28.2152C48.6231 29.0536 46.8621 29.6317 45.0328 29.9594C43.2034 30.287 41.3057 30.3641 39.331 30.181C38.8352 30.1328 38.3992 30.5568 38.365 31.1157C38.3223 31.6746 38.6984 32.1661 39.1942 32.2046H39.1857ZM39.1857 42.1686C38.6899 42.1205 38.3223 41.6386 38.3565 41.0797C38.3992 40.5208 38.8266 40.1065 39.3224 40.145C41.2971 40.3281 43.2034 40.251 45.0242 39.9234C46.8536 39.5957 48.6145 39.0176 50.3071 38.1792C50.7602 37.9576 51.2902 38.1888 51.4868 38.6996C51.6834 39.2103 51.4783 39.8077 51.0252 40.0294C49.1873 40.9352 47.281 41.5616 45.3063 41.9181C43.3231 42.2746 41.2886 42.3517 39.1771 42.1686H39.1857ZM17.1479 25.4881H24.397C24.8928 25.4881 25.2945 25.941 25.2945 26.4999C25.2945 27.0588 24.8928 27.5117 24.397 27.5117H17.1479V48.8081C17.1479 49.367 16.7462 49.8199 16.2503 49.8199H6.81293C6.69325 50.1475 6.51373 50.4463 6.29148 50.6968C5.86406 51.1786 5.26567 51.4774 4.61599 51.4774C3.96631 51.4774 3.36793 51.1786 2.94051 50.6968C2.51309 50.215 2.24809 49.5405 2.24809 48.8081C2.24809 48.0757 2.51309 47.4012 2.94051 46.9194C3.36793 46.4376 3.96631 46.1388 4.61599 46.1388C5.26567 46.1388 5.86406 46.4376 6.29148 46.9194C6.51373 47.1699 6.69325 47.4686 6.81293 47.7963H15.3442V5.20355H6.71035C6.59067 5.53119 6.41115 5.82992 6.18889 6.08046C5.76148 6.56228 5.16309 6.86101 4.51341 6.86101C3.86373 6.86101 3.26535 6.56228 2.83793 6.08046C2.41051 5.59864 2.14551 4.9241 2.14551 4.19173C2.14551 3.45937 2.41051 2.78482 2.83793 2.30301C3.26535 1.82119 3.86373 1.52246 4.51341 1.52246C5.16309 1.52246 5.76148 1.82119 6.18889 2.30301C6.41115 2.55355 6.59067 2.85228 6.71035 3.17991H16.2418C16.7376 3.17991 17.1394 3.63283 17.1394 4.19173V25.4881H17.1479ZM64.0615 27.5117H56.8124C56.3166 27.5117 55.9149 27.0588 55.9149 26.4999C55.9149 25.941 56.3166 25.4881 56.8124 25.4881H64.0615V4.19173C64.0615 3.63283 64.4632 3.17991 64.9591 3.17991H74.4905C74.6102 2.85228 74.7897 2.55355 75.012 2.30301C75.4394 1.82119 76.0378 1.52246 76.6874 1.52246C77.3371 1.52246 77.9355 1.82119 78.3629 2.30301C78.7903 2.78482 79.0553 3.45937 79.0553 4.19173C79.0553 4.9241 78.7903 5.59864 78.3629 6.08046C77.9355 6.56228 77.3371 6.86101 76.6874 6.86101C76.0378 6.86101 75.4394 6.56228 75.012 6.08046C74.7897 5.82992 74.6102 5.53119 74.4905 5.20355H65.8566V47.7866H74.3879C74.5076 47.459 74.6871 47.1603 74.9094 46.9097C75.3368 46.4279 75.9352 46.1292 76.5849 46.1292C77.2345 46.1292 77.8329 46.4279 78.2603 46.9097C78.6878 47.3916 78.9528 48.0661 78.9528 48.7985C78.9528 49.5308 78.6878 50.2054 78.2603 50.6872C77.8329 51.169 77.2345 51.4677 76.5849 51.4677C75.9352 51.4677 75.3368 51.169 74.9094 50.6872C74.6871 50.4366 74.5076 50.1379 74.3879 49.8103H64.9591C64.4632 49.8103 64.0615 49.3574 64.0615 48.7985V27.5021V27.5117Z"
              fill="currentColor"/>
    </g>
</svg>
