<svg width="1em" height="1em" viewBox="0 0 53 53" fill="transparent" xmlns="http://www.w3.org/2000/svg">
    <rect
            x="-0.585786"
            y="26.2842"
            width="38"
            height="38"
            rx="4"
            transform="rotate(-45 -0.585786 26.2842)"
            fill="transparent"
            stroke="currentColor"
            stroke-width="2"
    />
    <path
            d="M26 15.4375C20.5329 15.4375 16.25 17.9359 16.25 21.125V30.875C16.25 34.0641 20.5329 36.5625 26 36.5625C31.4671 36.5625 35.75 34.0641 35.75 30.875V21.125C35.75 17.9359 31.4671 15.4375 26 15.4375ZM34.125 26C34.125 26.977 33.3247 27.9734 31.9302 28.7341C30.3601 29.5902 28.2537 30.0625 26 30.0625C23.7463 30.0625 21.6399 29.5902 20.0698 28.7341C18.6753 27.9734 17.875 26.977 17.875 26V24.31C19.6077 25.8334 22.5702 26.8125 26 26.8125C29.4298 26.8125 32.3923 25.8294 34.125 24.31V26ZM31.9302 33.6091C30.3601 34.4652 28.2537 34.9375 26 34.9375C23.7463 34.9375 21.6399 34.4652 20.0698 33.6091C18.6753 32.8484 17.875 31.852 17.875 30.875V29.185C19.6077 30.7084 22.5702 31.6875 26 31.6875C29.4298 31.6875 32.3923 30.7044 34.125 29.185V30.875C34.125 31.852 33.3247 32.8484 31.9302 33.6091Z"
            fill="currentColor"
    />
</svg>
