<?xml version="1.0" encoding="utf-8"?>
<svg viewBox="528.97 250.201 48 48" xmlns="http://www.w3.org/2000/svg">
  <rect x="531.97" y="252.201" width="38" height="38" rx="4" fill="transparent" stroke="currentColor" stroke-width="2" style="transform-origin: 550.97px 271.201px;"/>
  <g fill="none" fill-rule="evenodd" transform="matrix(1, 0, 0, 1, 510.1791076660156, 229.7182159423828)"/>
  <g id="Icon-Architecture/64/Arch_AWS-Glue_64" stroke="currentColor" stroke-width="1" fill="transparent" fill-rule="evenodd" transform="matrix(1, 0, 0, 1, 505.95977783203125, 224.73915100097656)">
    <g id="Icon-Architecture-BG/64/Analytics" fill="transparent"/>
  </g>
  <path d="M 546.176 261.666 L 547.4 261.666 L 547.4 260.635 L 546.176 260.635 L 546.176 261.666 Z M 544.951 262.182 L 544.951 260.12 C 544.951 259.835 545.226 259.605 545.564 259.605 L 548.013 259.605 C 548.352 259.605 548.625 259.835 548.625 260.12 L 548.625 262.182 C 548.625 262.466 548.352 262.698 548.013 262.698 L 545.564 262.698 C 545.226 262.698 544.951 262.466 544.951 262.182 Z M 551.074 258.574 L 552.298 258.574 L 552.298 257.542 L 551.074 257.542 L 551.074 258.574 Z M 549.849 259.089 L 549.849 257.027 C 549.849 256.742 550.123 256.511 550.462 256.511 L 552.91 256.511 C 553.249 256.511 553.523 256.742 553.523 257.027 L 553.523 259.089 C 553.523 259.374 553.249 259.605 552.91 259.605 L 550.462 259.605 C 550.123 259.605 549.849 259.374 549.849 259.089 Z M 552.298 263.729 L 553.523 263.729 L 553.523 262.698 L 552.298 262.698 L 552.298 263.729 Z M 551.686 261.666 L 554.135 261.666 C 554.473 261.666 554.747 261.898 554.747 262.182 L 554.747 264.244 C 554.747 264.529 554.473 264.759 554.135 264.759 L 551.686 264.759 C 551.347 264.759 551.074 264.529 551.074 264.244 L 551.074 262.182 C 551.074 261.898 551.347 261.666 551.686 261.666 Z M 550.462 267.08 C 549.384 267.08 545.475 267.041 542.932 266.515 L 549.143 274.795 C 549.204 274.878 549.238 274.973 549.238 275.07 L 549.238 276.245 C 550.097 276.454 550.891 276.456 551.686 276.253 L 551.686 275.07 C 551.686 274.973 551.719 274.878 551.78 274.795 L 557.991 266.515 C 555.449 267.041 551.539 267.08 550.462 267.08 Z M 540.822 265.632 C 540.724 265.512 540.666 265.384 540.666 265.243 C 540.666 263.776 546.411 263.505 549.836 263.473 L 549.849 264.505 C 545.642 264.543 543.071 264.947 542.164 265.248 C 543.126 265.587 545.958 266.048 550.462 266.048 C 554.954 266.048 557.782 265.589 558.75 265.252 C 558.355 265.117 557.536 264.918 555.898 264.749 L 556.046 263.726 C 559.757 264.108 560.257 264.707 560.257 265.243 C 560.257 265.384 560.199 265.512 560.101 265.632 L 552.91 275.22 L 552.91 276.617 C 552.91 276.827 552.758 277.017 552.527 277.095 C 551.858 277.321 551.188 277.434 550.502 277.434 C 549.822 277.434 549.129 277.323 548.413 277.101 C 548.173 277.026 548.013 276.833 548.013 276.617 L 548.013 275.22 L 540.822 265.632 Z M 554.7 280.544 C 554.795 280.736 554.743 280.958 554.567 281.106 L 550.895 284.199 C 550.775 284.299 550.618 284.35 550.462 284.35 C 550.305 284.35 550.148 284.299 550.029 284.199 L 546.356 281.106 C 546.18 280.958 546.128 280.736 546.223 280.544 C 546.317 280.352 546.541 280.226 546.789 280.226 L 548.625 280.226 L 548.625 278.679 L 549.849 278.679 L 549.849 280.741 C 549.849 281.026 549.576 281.257 549.238 281.257 L 548.266 281.257 L 550.462 283.105 L 552.657 281.257 L 551.686 281.257 C 551.347 281.257 551.074 281.026 551.074 280.741 L 551.074 278.679 L 552.298 278.679 L 552.298 280.226 L 554.135 280.226 C 554.382 280.226 554.606 280.352 554.7 280.544 Z" id="AWS-Glue_Icon_64_Squid" fill="currentColor" style="" transform="matrix(1, 0, 0, 1, 0, 2.842170943040401e-14)"/>
</svg>
