<?xml version="1.0" encoding="utf-8"?>
<svg viewBox="0 0 48 48" xmlns="http://www.w3.org/2000/svg">
  <rect x="2" y="2" width="44" height="44" rx="4" fill="transparent" stroke="currentColor" stroke-width="2"/>
  <g transform="translate(24, 24) scale(1) translate(-21.462, -19.432)">
    <path d="M 17.176 11.666 L 18.4 11.666 L 18.4 10.635 L 17.176 10.635 L 17.176 11.666 Z M 15.951 12.182 L 15.951 10.12 C 15.951 9.835 16.226 9.605 16.564 9.605 L 19.013 9.605 C 19.352 9.605 19.625 9.835 19.625 10.12 L 19.625 12.182 C 19.625 12.466 19.352 12.698 19.013 12.698 L 16.564 12.698 C 16.226 12.698 15.951 12.466 15.951 12.182 Z M 22.074 8.574 L 23.298 8.574 L 23.298 7.542 L 22.074 7.542 L 22.074 8.574 Z M 20.849 9.089 L 20.849 7.027 C 20.849 6.742 21.123 6.511 21.462 6.511 L 23.91 6.511 C 24.249 6.511 24.523 6.742 24.523 7.027 L 24.523 9.089 C 24.523 9.374 24.249 9.605 23.91 9.605 L 21.462 9.605 C 21.123 9.605 20.849 9.374 20.849 9.089 Z M 23.298 13.729 L 24.523 13.729 L 24.523 12.698 L 23.298 12.698 L 23.298 13.729 Z M 22.686 11.666 L 25.135 11.666 C 25.473 11.666 25.747 11.898 25.747 12.182 L 25.747 14.244 C 25.747 14.529 25.473 14.759 25.135 14.759 L 22.686 14.759 C 22.347 14.759 22.074 14.529 22.074 14.244 L 22.074 12.182 C 22.074 11.898 22.347 11.666 22.686 11.666 Z M 21.462 17.08 C 20.384 17.08 16.475 17.041 13.932 16.515 L 20.143 24.795 C 20.204 24.878 20.238 24.973 20.238 25.07 L 20.238 26.245 C 21.097 26.454 21.891 26.456 22.686 26.253 L 22.686 25.07 C 22.686 24.973 22.719 24.878 22.78 24.795 L 28.991 16.515 C 26.449 17.041 22.539 17.08 21.462 17.08 Z M 11.822 15.632 C 11.724 15.512 11.666 15.384 11.666 15.243 C 11.666 13.776 17.411 13.505 20.836 13.473 L 20.849 14.505 C 16.642 14.543 14.071 14.947 13.164 15.248 C 14.126 15.587 16.958 16.048 21.462 16.048 C 25.954 16.048 28.782 15.589 29.75 15.252 C 29.355 15.117 28.536 14.918 26.898 14.749 L 27.046 13.726 C 30.757 14.108 31.257 14.707 31.257 15.243 C 31.257 15.384 31.199 15.512 31.101 15.632 L 23.91 25.22 L 23.91 26.617 C 23.91 26.827 23.758 27.017 23.527 27.095 C 22.858 27.321 22.188 27.434 21.502 27.434 C 20.822 27.434 20.129 27.323 19.413 27.101 C 19.173 27.026 19.013 26.833 19.013 26.617 L 19.013 25.22 L 11.822 15.632 Z M 25.7 30.544 C 25.795 30.736 25.743 30.958 25.567 31.106 L 21.895 34.199 C 21.775 34.299 21.618 34.35 21.462 34.35 C 21.305 34.35 21.148 34.299 21.029 34.199 L 17.356 31.106 C 17.18 30.958 17.128 30.736 17.223 30.544 C 17.317 30.352 17.541 30.226 17.789 30.226 L 19.625 30.226 L 19.625 28.679 L 20.849 28.679 L 20.849 30.741 C 20.849 31.026 20.576 31.257 20.238 31.257 L 19.266 31.257 L 21.462 33.105 L 23.657 31.257 L 22.686 31.257 C 22.347 31.257 22.074 31.026 22.074 30.741 L 22.074 28.679 L 23.298 28.679 L 23.298 30.226 L 25.135 30.226 C 25.382 30.226 25.606 30.352 25.7 30.544 Z" fill="currentColor"/>
  </g>
</svg>
