<?xml version="1.0" encoding="utf-8"?>
<svg viewBox="528.97 250.201 48 48" xmlns="http://www.w3.org/2000/svg">
  <rect x="531.97" y="252.201" width="38" height="38" rx="4" fill="transparent" stroke="currentColor" stroke-width="2" style="transform-origin: 550.97px 271.201px;"/>
  <path d="M 560.092 272.503 L 560.258 271.329 C 561.792 272.25 561.812 272.631 561.812 272.641 C 561.809 272.643 561.547 272.862 560.092 272.503 Z M 559.25 272.269 C 556.598 271.464 552.905 269.765 551.41 269.057 C 551.41 269.051 551.412 269.045 551.412 269.039 C 551.411 268.463 550.945 267.996 550.37 267.995 C 549.797 267.995 549.33 268.464 549.33 269.039 C 549.33 269.615 549.797 270.083 550.37 270.083 C 550.623 270.083 550.851 269.989 551.032 269.839 C 552.79 270.673 556.455 272.347 559.126 273.138 L 558.07 280.613 C 558.067 280.633 558.066 280.654 558.066 280.674 C 558.066 281.333 555.16 282.542 550.411 282.542 C 545.612 282.542 542.676 281.333 542.676 280.674 C 542.676 280.654 542.674 280.635 542.671 280.615 L 540.465 264.451 C 542.375 265.77 546.484 266.467 550.414 266.467 C 554.338 266.467 558.44 265.772 560.353 264.458 L 559.25 272.269 Z M 540.231 262.765 C 540.263 262.194 543.539 259.951 550.414 259.951 C 557.287 259.951 560.564 262.193 560.596 262.765 L 560.596 262.96 C 560.219 264.242 555.973 265.599 550.414 265.599 C 544.845 265.599 540.597 264.238 540.231 262.954 L 540.231 262.765 Z M 561.463 262.775 C 561.463 261.27 557.158 259.082 550.414 259.082 C 543.669 259.082 539.365 261.27 539.365 262.775 L 539.406 263.103 L 541.81 280.708 C 541.867 282.677 547.103 283.411 550.411 283.411 C 554.515 283.411 558.875 282.465 558.932 280.709 L 559.97 273.368 C 560.547 273.507 561.023 273.578 561.404 273.578 C 561.917 273.578 562.264 273.452 562.474 273.201 C 562.645 273.003 562.714 272.737 562.663 272.48 C 562.55 271.879 561.839 271.231 560.389 270.402 L 561.418 263.119 L 561.463 262.775 Z" fill="currentColor" style="" transform="matrix(1, 0, 0, 1, 0, 2.842170943040401e-14)"/>
</svg>
