<svg xmlns="http://www.w3.org/2000/svg" width="1em" height="1em" viewBox="0 0 32 32" fill="none">
    <path
            d="M16.0003 2.66626C15.4703 2.66751 14.9453 2.77501 14.459 2.98376L6.964 6.19496C5.97651 6.61746 5.33398 7.59246 5.33398 8.66622V15.3337C5.33398 20.7888 9.2015 26.0864 14.4213 28.9424C14.9088 29.2086 15.4713 29.3336 16.0001 29.3336C16.5289 29.3336 17.0914 29.2087 17.5788 28.9424C22.7987 26.0861 26.6662 20.7888 26.6662 15.3337V8.66622C26.6662 7.59246 26.0237 6.61749 25.0362 6.19496L17.5412 2.98376C17.0549 2.77501 16.5299 2.66751 15.9999 2.66626H16.0003ZM16.6665 4.13752C16.7815 4.17002 16.9053 4.16127 17.0165 4.20878L24.5103 7.4187C25.0116 7.6337 25.334 8.12244 25.334 8.66618V15.3337C25.334 20.1475 21.7878 25.1174 16.9379 27.7711C16.8916 27.7961 16.7629 27.8061 16.6666 27.8361L16.6665 4.13752Z"
            fill="currentColor"
    />
</svg>
