<?xml version="1.0" encoding="utf-8"?>
<svg viewBox="528.97 250.201 48 48" xmlns="http://www.w3.org/2000/svg">
  <!-- Centered and scaled Snowflake-style logo -->
  <rect x="531.97" y="252.201" width="38" height="38" rx="4" fill="transparent" stroke="currentColor" stroke-width="2" style="transform-origin: 550.97px 271.201px;"/>
  <g transform="translate(522, 238)">
    <!-- Scaled to fit inside 38x38 container -->
    <g transform="scale(0.1)">
      <g transform="translate(-147, -150)">
        <g transform="matrix(1.0267, 0, 0, 1.08658, 119.265778, 196.029083)">
          <path d="M 339.195 260.934 L 308.64 173.149 C 303.79 173.149 299.425 173.634 295.06 174.119 L 337.255 261.904 C 337.74 261.419 338.71 261.419 339.195 260.934 Z" fill="currentColor"/>
          <path d="M 332.405 264.814 L 261.595 185.274 C 257.23 187.699 253.35 190.609 249.47 194.004 L 331.435 266.754 C 331.435 266.269 331.92 265.299 332.405 264.814 Z" fill="currentColor"/>
          <path d="M 328.04 271.119 L 225.22 221.649 C 222.795 226.014 220.37 230.864 218.43 235.714 L 326.585 273.544 C 327.07 272.574 327.555 272.089 328.04 271.119 Z" fill="currentColor"/>
          <path d="M 325.615 279.849 C 325.615 279.364 325.615 278.879 325.615 278.879 L 212.61 272.574 C 212.61 277.909 213.095 282.759 214.065 287.609 L 325.615 281.304 C 325.615 280.819 325.615 280.334 325.615 279.849 Z" fill="currentColor"/>
          <path d="M 327.07 286.639 L 227.645 321.074 C 230.07 324.954 233.465 329.319 236.375 332.714 L 327.555 288.579 C 327.555 288.094 327.07 287.609 327.07 286.639 Z" fill="currentColor"/>
          <path d="M 330.95 293.429 L 263.05 354.054 C 266.93 355.994 271.295 357.934 275.175 359.389 L 332.405 294.884 C 331.92 294.399 331.435 293.914 330.95 293.429 Z" fill="currentColor"/>
          <path d="M 337.255 298.279 L 304.76 365.209 C 306.215 365.209 307.185 365.209 308.64 365.209 C 311.065 365.209 313.975 365.209 316.4 364.724 L 339.195 299.249 C 338.71 298.764 337.74 298.764 337.255 298.279 Z" fill="currentColor"/>
          <path d="M 345.985 300.219 C 345.5 300.219 345.015 300.219 345.015 300.219 L 341.62 359.874 C 344.53 358.904 347.44 357.449 350.35 355.994 L 346.955 300.219 C 346.955 300.219 346.47 300.219 345.985 300.219 Z" fill="currentColor"/>
          <path d="M 359.565 295.369 L 386.725 325.924 C 388.18 323.984 389.635 322.044 390.605 320.104 L 361.02 293.914 C 360.535 293.914 360.05 294.399 359.565 295.369 Z" fill="currentColor"/>
          <path d="M 366.355 278.879 C 366.355 279.364 366.355 279.849 366.355 279.849 C 366.355 280.334 366.355 280.819 366.355 280.819 L 404.185 282.759 C 404.67 280.334 404.67 278.394 405.155 275.969 L 366.355 278.879 Z" fill="currentColor"/>
          <path d="M 361.02 266.754 L 397.88 233.774 C 396.91 230.864 395.455 228.439 394.485 226.014 L 359.565 265.299 C 360.05 265.299 360.535 266.269 361.02 266.754 Z" fill="currentColor"/>
          <path d="M 345.015 259.964 C 345.5 259.964 345.985 259.964 345.985 259.964 C 346.47 259.964 346.955 259.964 346.955 259.964 L 351.32 183.334 C 347.44 181.394 344.045 179.939 339.68 178.484 L 345.015 259.964 Z" fill="currentColor"/>
          <path d="M 352.775 299.249 L 368.78 344.839 C 370.72 343.384 373.145 341.444 375.085 339.504 L 355.2 298.279 C 354.23 298.764 353.26 298.764 352.775 299.249 Z" fill="currentColor"/>
          <path d="M 363.93 289.064 L 397.88 305.554 C 398.85 303.614 399.335 301.674 400.305 299.249 L 365.385 287.124 C 364.9 287.609 364.415 288.094 363.93 289.064 Z" fill="currentColor"/>
          <path d="M 364.9 273.544 L 404.185 259.964 C 403.7 257.539 403.7 255.114 403.215 252.689 L 363.93 271.604 C 364.415 272.089 364.9 272.574 364.9 273.544 Z" fill="currentColor"/>
          <path d="M 381.39 206.614 C 378.965 204.189 376.54 201.279 374.115 198.854 L 352.775 260.934 C 353.745 261.419 354.23 261.419 354.715 261.904 L 381.39 206.614 Z" fill="currentColor"/>
        </g>
      </g>
    </g>
  </g>
</svg>
