<svg width="250" height="250" viewBox="0 0 250 250" fill="none" xmlns="http://www.w3.org/2000/svg">
<path d="M154.585 115.785L124.03 28C119.18 28 114.815 28.485 110.45 28.97L152.645 116.755C153.13 116.27 154.1 116.27 154.585 115.785Z" fill="#00A7B5"/>
<path d="M147.795 119.665L76.985 40.125C72.62 42.55 68.74 45.46 64.86 48.855L146.825 121.605C146.825 121.12 147.31 120.15 147.795 119.665Z" fill="#00A7B5"/>
<path d="M143.43 125.97L40.61 76.5C38.185 80.865 35.76 85.715 33.82 90.565L141.975 128.395C142.46 127.425 142.945 126.94 143.43 125.97Z" fill="#00A7B5"/>
<path d="M141.005 134.7C141.005 134.215 141.005 133.73 141.005 133.73L28 127.425C28 132.76 28.485 137.61 29.455 142.46L141.005 136.155C141.005 135.67 141.005 135.185 141.005 134.7Z" fill="#00A7B5"/>
<path d="M142.46 141.49L43.035 175.925C45.46 179.805 48.855 184.17 51.765 187.565L142.945 143.43C142.945 142.945 142.46 142.46 142.46 141.49Z" fill="#00A7B5"/>
<path d="M146.34 148.28L78.44 208.905C82.32 210.845 86.685 212.785 90.565 214.24L147.795 149.735C147.31 149.25 146.825 148.765 146.34 148.28Z" fill="#00A7B5"/>
<path d="M152.645 153.13L120.15 220.06C121.605 220.06 122.575 220.06 124.03 220.06C126.455 220.06 129.365 220.06 131.79 219.575L154.585 154.1C154.1 153.615 153.13 153.615 152.645 153.13Z" fill="#00A7B5"/>
<path d="M161.375 155.07C160.89 155.07 160.405 155.07 160.405 155.07L157.01 214.725C159.92 213.755 162.83 212.3 165.74 210.845L162.345 155.07C162.345 155.07 161.86 155.07 161.375 155.07Z" fill="black"/>
<path d="M174.955 150.22L202.115 180.775C203.57 178.835 205.025 176.895 205.995 174.955L176.41 148.765C175.925 148.765 175.44 149.25 174.955 150.22Z" fill="black"/>
<path d="M181.745 133.73C181.745 134.215 181.745 134.7 181.745 134.7C181.745 135.185 181.745 135.67 181.745 135.67L219.575 137.61C220.06 135.185 220.06 133.245 220.545 130.82L181.745 133.73Z" fill="black"/>
<path d="M176.41 121.605L213.27 88.625C212.3 85.715 210.845 83.29 209.875 80.865L174.955 120.15C175.44 120.15 175.925 121.12 176.41 121.605Z" fill="black"/>
<path d="M160.405 114.815C160.89 114.815 161.375 114.815 161.375 114.815C161.86 114.815 162.345 114.815 162.345 114.815L166.71 38.185C162.83 36.245 159.435 34.79 155.07 33.335L160.405 114.815Z" fill="black"/>
<path d="M168.165 154.1L184.17 199.69C186.11 198.235 188.535 196.295 190.475 194.355L170.59 153.13C169.62 153.615 168.65 153.615 168.165 154.1Z" fill="black"/>
<path d="M179.32 143.915L213.27 160.405C214.24 158.465 214.725 156.525 215.695 154.1L180.775 141.975C180.29 142.46 179.805 142.945 179.32 143.915Z" fill="black"/>
<path d="M180.29 128.395L219.575 114.815C219.09 112.39 219.09 109.965 218.605 107.54L179.32 126.455C179.805 126.94 180.29 127.425 180.29 128.395Z" fill="black"/>
<path d="M196.78 61.4651C194.355 59.0401 191.93 56.1301 189.505 53.7051L168.165 115.785C169.135 116.27 169.62 116.27 170.105 116.755L196.78 61.4651Z" fill="black"/>
</svg>
