<svg width="1em" height="1em" viewBox="0 0 1024 1024" fill="transparent" xmlns="http://www.w3.org/2000/svg">
    <rect
            x="-11.32"
            y="507.87"
            width="734.19"
            height="734.19"
            rx="77.29"
            transform="rotate(-45 -11.32 507.87)"
            fill="transparent"
            stroke="currentColor"
            stroke-width="38.4"
    />
    <path
            d="M502.41 298.27C396.78 298.27 413.96 346.58 314.02 408.02V596.72C314.02 658.17 396.78 706.47 502.41 706.47C608.03 706.47 690.8 658.17 690.8 596.72V408.02C690.8 346.58 608.03 298.27 502.41 298.27ZM659.39 502.41C659.39 521.28 643.94 540.52 617.01 555.21C586.68 571.76 546.01 580.88 502.41 580.88C458.82 580.88 418.14 571.76 387.82 555.21C360.89 540.52 345.43 521.28 345.43 502.41V469.77C378.89 509.2 436.12 518.08 502.41 518.08C568.7 518.08 625.93 517.18 659.39 469.77V502.41ZM617.01 649.29C586.68 665.84 546.01 674.96 502.41 674.96C458.82 674.96 418.14 665.84 387.82 649.29C360.89 634.6 345.43 615.36 345.43 596.72V563.85C378.89 603.28 436.12 622.18 502.41 622.18C568.7 622.18 625.93 603.09 659.39 563.85V596.72C659.39 615.36 643.94 634.6 617.01 649.29Z"
            fill="currentColor"
    />
</svg>
