<svg xmlns="http://www.w3.org/2000/svg" width="15" height="15" viewBox="0 0 15 15" fill="none">
    <path d="M13.8462 1.66664H8.07692V0.555545C8.07692 0.408206 8.01614 0.2669 7.90795 0.162715C7.79975 0.0585305 7.65301 0 7.5 0C7.34699 0 7.20025 0.0585305 7.09205 0.162715C6.98386 0.2669 6.92308 0.408206 6.92308 0.555545V1.66664H1.15385C0.847827 1.66664 0.554342 1.7837 0.337954 1.99207C0.121566 2.20044 0 2.48305 0 2.77773V11.1109C0 11.4056 0.121566 11.6882 0.337954 11.8966C0.554342 12.1049 0.847827 12.222 1.15385 12.222H3.99231L2.43389 14.097C2.33826 14.2121 2.29404 14.3591 2.31094 14.5056C2.32785 14.6521 2.4045 14.7861 2.52404 14.8782C2.64358 14.9703 2.79621 15.0129 2.94836 14.9966C3.1005 14.9803 3.23971 14.9065 3.33534 14.7914L5.46923 12.222H9.53077L11.6647 14.7914C11.712 14.8484 11.7706 14.8959 11.837 14.9311C11.9034 14.9663 11.9763 14.9885 12.0516 14.9966C12.127 15.0047 12.2032 14.9984 12.276 14.978C12.3488 14.9577 12.4168 14.9238 12.476 14.8782C12.5352 14.8326 12.5844 14.7762 12.621 14.7123C12.6576 14.6484 12.6807 14.5781 12.6891 14.5056C12.6974 14.433 12.6909 14.3596 12.6698 14.2895C12.6487 14.2194 12.6135 14.154 12.5661 14.097L11.0077 12.222H13.8462C14.1522 12.222 14.4457 12.1049 14.662 11.8966C14.8784 11.6882 15 11.4056 15 11.1109V2.77773C15 2.48305 14.8784 2.20044 14.662 1.99207C14.4457 1.7837 14.1522 1.66664 13.8462 1.66664ZM5.76923 8.88873C5.76923 9.03607 5.70845 9.17737 5.60025 9.28156C5.49206 9.38574 5.34532 9.44427 5.19231 9.44427C5.0393 9.44427 4.89256 9.38574 4.78436 9.28156C4.67617 9.17737 4.61538 9.03607 4.61538 8.88873V7.22209C4.61538 7.07475 4.67617 6.93345 4.78436 6.82926C4.89256 6.72508 5.0393 6.66655 5.19231 6.66655C5.34532 6.66655 5.49206 6.72508 5.60025 6.82926C5.70845 6.93345 5.76923 7.07475 5.76923 7.22209V8.88873ZM8.07692 8.88873C8.07692 9.03607 8.01614 9.17737 7.90795 9.28156C7.79975 9.38574 7.65301 9.44427 7.5 9.44427C7.34699 9.44427 7.20025 9.38574 7.09205 9.28156C6.98386 9.17737 6.92308 9.03607 6.92308 8.88873V6.111C6.92308 5.96366 6.98386 5.82236 7.09205 5.71817C7.20025 5.61399 7.34699 5.55545 7.5 5.55545C7.65301 5.55545 7.79975 5.61399 7.90795 5.71817C8.01614 5.82236 8.07692 5.96366 8.07692 6.111V8.88873ZM10.3846 8.88873C10.3846 9.03607 10.3238 9.17737 10.2156 9.28156C10.1074 9.38574 9.9607 9.44427 9.80769 9.44427C9.65468 9.44427 9.50794 9.38574 9.39975 9.28156C9.29155 9.17737 9.23077 9.03607 9.23077 8.88873V4.99991C9.23077 4.85257 9.29155 4.71126 9.39975 4.60708C9.50794 4.50289 9.65468 4.44436 9.80769 4.44436C9.9607 4.44436 10.1074 4.50289 10.2156 4.60708C10.3238 4.71126 10.3846 4.85257 10.3846 4.99991V8.88873Z"
          fill="currentColor"/>
</svg>
