<svg xmlns="http://www.w3.org/2000/svg" width="1em" height="1em" viewBox="0 0 15 15" fill="none">
    <path
            d="M8.4375 8.67188C8.4375 8.90365 8.36877 9.13022 8.24 9.32293C8.11124 9.51565 7.92821 9.66585 7.71408 9.75455C7.49995 9.84324 7.26432 9.86645 7.037 9.82123C6.80968 9.77602 6.60087 9.66441 6.43698 9.50052C6.27309 9.33663 6.16148 9.12782 6.11627 8.9005C6.07105 8.67318 6.09426 8.43755 6.18295 8.22342C6.27165 8.00929 6.42185 7.82626 6.61457 7.6975C6.80728 7.56873 7.03385 7.5 7.26562 7.5C7.57643 7.5 7.8745 7.62347 8.09427 7.84323C8.31403 8.063 8.4375 8.36107 8.4375 8.67188ZM12.6562 5.15625V12.6562C12.6562 12.9049 12.5575 13.1433 12.3817 13.3192C12.2058 13.495 11.9674 13.5938 11.7188 13.5938H3.28125C3.03261 13.5938 2.79415 13.495 2.61834 13.3192C2.44252 13.1433 2.34375 12.9049 2.34375 12.6562V2.34375C2.34375 2.09511 2.44252 1.85665 2.61834 1.68084C2.79415 1.50502 3.03261 1.40625 3.28125 1.40625H8.90625C8.96783 1.4062 9.02881 1.41829 9.08571 1.44181C9.14262 1.46534 9.19433 1.49984 9.23789 1.54336L12.5191 4.82461C12.5627 4.86817 12.5972 4.91989 12.6207 4.97679C12.6442 5.03369 12.6563 5.09467 12.6562 5.15625ZM9.70664 10.4496L9.05039 9.79395C9.32703 9.35435 9.43201 8.82825 9.34528 8.31615C9.25855 7.80405 8.98618 7.34186 8.58021 7.01788C8.17425 6.6939 7.66315 6.53085 7.14456 6.55988C6.62598 6.58891 6.13628 6.80799 5.76901 7.17526C5.40174 7.54253 5.18266 8.03223 5.15363 8.55081C5.1246 9.0694 5.28765 9.58049 5.61163 9.98646C5.93561 10.3924 6.3978 10.6648 6.9099 10.7515C7.422 10.8383 7.9481 10.7333 8.38769 10.4566L9.04336 11.1129C9.08691 11.1564 9.13861 11.191 9.19552 11.2146C9.25242 11.2381 9.31341 11.2503 9.375 11.2503C9.43659 11.2503 9.49758 11.2381 9.55448 11.2146C9.61139 11.191 9.66309 11.1564 9.70664 11.1129C9.75019 11.0693 9.78474 11.0176 9.80831 10.9607C9.83188 10.9038 9.84401 10.8428 9.84401 10.7812C9.84401 10.7197 9.83188 10.6587 9.80831 10.6018C9.78474 10.5449 9.75019 10.4932 9.70664 10.4496ZM11.4844 5.15625L8.90625 2.57813V5.15625H11.4844Z"
            fill="currentColor"
    />
</svg>
