<svg xmlns="http://www.w3.org/2000/svg" width="1em" height="1em" viewBox="0 0 32 32" fill="none">
    <g clip-path="url(#clip0_765_6322)">
        <path d="M16.2065 17.0667V27.2469C16.2066 27.4987 16.1322 27.7449 15.9923 27.9544C15.8525 28.1638 15.6537 28.3271 15.4211 28.4234C15.1883 28.5199 14.9323 28.5451 14.6854 28.4958C14.4384 28.4467 14.2116 28.3253 14.0337 28.1472L9.8439 23.9557L3.10912 30.6922C2.9909 30.8104 2.85054 30.9042 2.69606 30.9682C2.54158 31.0322 2.37602 31.0652 2.20881 31.0652C2.0416 31.0652 1.87605 31.0322 1.72157 30.9682C1.56708 30.9042 1.42672 30.8104 1.30851 30.6922C1.19029 30.574 1.09651 30.4336 1.0325 30.2791C0.968492 30.1246 0.935547 29.9591 0.935547 29.7919C0.935547 29.6247 0.968492 29.4591 1.0325 29.3046C1.09651 29.1502 1.19029 29.0098 1.30851 28.8916L8.04482 22.1568L3.85354 17.967C3.67539 17.789 3.55399 17.5623 3.50474 17.3153C3.45562 17.0683 3.48082 16.8122 3.57715 16.5796C3.6736 16.347 3.83687 16.1482 4.04632 16.0084C4.25578 15.8685 4.50201 15.794 4.75384 15.7942H14.934C15.2714 15.7942 15.595 15.9283 15.8338 16.1669C16.0724 16.4055 16.2065 16.7293 16.2065 17.0667ZM28.9316 0.524048H8.57139C7.89632 0.524048 7.24899 0.792167 6.7718 1.26949C6.29448 1.74681 6.02636 2.39414 6.02636 3.06908V10.7042C6.02636 11.0416 6.16035 11.3654 6.39908 11.604C6.63767 11.8426 6.9614 11.9767 7.29887 11.9767C7.63634 11.9767 7.95994 11.8426 8.19867 11.604C8.43726 11.3654 8.57139 11.0416 8.57139 10.7042V3.06908H28.9316V23.4293H21.2965C20.9591 23.4293 20.6353 23.5634 20.3967 23.802C20.158 24.0406 20.024 24.3644 20.024 24.7018C20.024 25.0393 20.158 25.363 20.3967 25.6016C20.6353 25.8402 20.9591 25.9743 21.2965 25.9743H28.9316C29.6066 25.9743 30.2539 25.7062 30.7312 25.2289C31.2085 24.7516 31.4766 24.1043 31.4766 23.4293V3.06908C31.4766 2.39414 31.2085 1.74681 30.7312 1.26949C30.2539 0.792167 29.6066 0.524048 28.9316 0.524048Z"
              fill="currentColor"/>
    </g>
</svg>
