<svg xmlns="http://www.w3.org/2000/svg" width="24" height="24" viewBox="0 0 24 24" fill="none">
    <path
            d="M19.9688 1.5H4.03125C3.61641 1.5 3.28125 1.83516 3.28125 2.25V17.7188C3.28125 18.1336 3.61641 18.4688 4.03125 18.4688H19.9688C20.3836 18.4688 20.7188 18.1336 20.7188 17.7188V2.25C20.7188 1.83516 20.3836 1.5 19.9688 1.5ZM7.03125 7.6875C7.03125 6.91172 7.66172 6.28125 8.4375 6.28125C9.21328 6.28125 9.84375 6.91172 9.84375 7.6875C9.84375 8.46328 9.21328 9.09375 8.4375 9.09375C7.66172 9.09375 7.03125 8.46328 7.03125 7.6875ZM15.75 13.5C15.75 13.6031 15.6656 13.6875 15.5625 13.6875H8.4375C8.33437 13.6875 8.25 13.6031 8.25 13.5V12.0938C8.25 11.9906 8.33437 11.9062 8.4375 11.9062H15.5625C15.6656 11.9062 15.75 11.9906 15.75 12.0938V13.5ZM15.5625 9.09375C14.7867 9.09375 14.1562 8.46328 14.1562 7.6875C14.1562 6.91172 14.7867 6.28125 15.5625 6.28125C16.3383 6.28125 16.9688 6.91172 16.9688 7.6875C16.9688 8.46328 16.3383 9.09375 15.5625 9.09375ZM18.7266 20.25H5.27344C4.95 20.25 4.6875 20.5852 4.6875 21V22.3125C4.6875 22.4156 4.75312 22.5 4.83281 22.5H19.1648C19.2445 22.5 19.3102 22.4156 19.3102 22.3125V21C19.3125 20.5852 19.05 20.25 18.7266 20.25Z"
            fill="currentColor"
    />
</svg>
