<svg width="1211" height="346" viewBox="0 0 1211 346" fill="none" xmlns="http://www.w3.org/2000/svg">
<g clip-path="url(#clip0_720_8385)">
<rect width="1211" height="346" fill="white"/>
<rect y="-1" width="1216" height="347" fill="url(#paint0_linear_720_8385)"/>
<g opacity="0.05">
<circle cx="872.18" cy="121.548" r="53.5177" transform="rotate(20.5825 872.18 121.548)" fill="#3C9673" stroke="#3C9673" stroke-width="4.97839"/>
<g clip-path="url(#clip1_720_8385)">
<path d="M869.582 115.824L877.904 118.949L874.779 127.272L866.457 124.147L869.582 115.824ZM898.965 138.729C898.758 139.28 898.34 139.727 897.803 139.971C897.267 140.215 896.655 140.235 896.103 140.028L891.942 138.465L888.035 148.868C887.621 149.972 886.785 150.866 885.712 151.353C884.638 151.84 883.415 151.881 882.311 151.467L871.908 147.56L870.346 151.722C870.138 152.273 869.72 152.72 869.184 152.964C868.647 153.208 868.036 153.228 867.484 153.021C866.932 152.814 866.485 152.396 866.241 151.859C865.998 151.322 865.977 150.711 866.184 150.159L867.747 145.998L859.425 142.872L857.862 147.034C857.655 147.585 857.237 148.032 856.7 148.276C856.163 148.52 855.552 148.54 855 148.333C854.448 148.126 854.001 147.708 853.758 147.171C853.514 146.634 853.493 146.023 853.701 145.471L855.263 141.31L844.86 137.403C843.757 136.989 842.863 136.153 842.375 135.079C841.888 134.006 841.847 132.783 842.262 131.679L846.168 121.276L842.007 119.713C841.455 119.506 841.008 119.088 840.765 118.551C840.521 118.015 840.5 117.403 840.708 116.851C840.915 116.299 841.333 115.853 841.87 115.609C842.406 115.365 843.018 115.345 843.57 115.552L847.731 117.115L850.856 108.792L846.695 107.23C846.143 107.022 845.696 106.604 845.453 106.068C845.209 105.531 845.188 104.919 845.396 104.368C845.603 103.816 846.021 103.369 846.558 103.125C847.094 102.882 847.706 102.861 848.258 103.068L852.419 104.631L856.326 94.2278C856.74 93.1242 857.576 92.2304 858.649 91.743C859.723 91.2557 860.946 91.2148 862.049 91.6292L872.453 95.5359L874.015 91.3746C874.223 90.8228 874.64 90.3759 875.177 90.1322C875.714 89.8886 876.325 89.8681 876.877 90.0753C877.429 90.2825 877.876 90.7005 878.12 91.2372C878.363 91.7739 878.384 92.3855 878.177 92.9373L876.614 97.0985L884.936 100.224L886.499 96.0626C886.706 95.5108 887.124 95.0639 887.661 94.8202C888.198 94.5766 888.809 94.5561 889.361 94.7633C889.913 94.9705 890.36 95.3885 890.603 95.9252C890.847 96.4619 890.868 97.0734 890.66 97.6253L889.098 101.787L899.501 105.693C900.604 106.108 901.498 106.944 901.986 108.017C902.473 109.09 902.514 110.313 902.099 111.417L898.193 121.82L902.354 123.383C902.906 123.59 903.353 124.008 903.596 124.545C903.84 125.081 903.86 125.693 903.653 126.245C903.446 126.797 903.028 127.244 902.491 127.487C901.955 127.731 901.343 127.751 900.791 127.544L896.63 125.981L893.505 134.304L897.666 135.867C898.218 136.074 898.665 136.492 898.908 137.029C899.152 137.565 899.172 138.177 898.965 138.729ZM882.847 118.432C883.054 117.88 883.034 117.268 882.79 116.731C882.546 116.195 882.099 115.777 881.548 115.57L869.064 110.882C868.512 110.674 867.901 110.695 867.364 110.938C866.827 111.182 866.409 111.629 866.202 112.181L861.514 124.665C861.307 125.216 861.327 125.828 861.571 126.365C861.815 126.901 862.261 127.319 862.813 127.527L875.297 132.215C875.849 132.422 876.46 132.401 876.997 132.158C877.534 131.914 877.952 131.467 878.159 130.915L882.847 118.432Z" fill="white"/>
</g>
<circle cx="146.707" cy="16.188" r="53.5177" transform="rotate(20.5825 146.707 16.188)" fill="white" stroke="#3C9673" stroke-width="4.97839"/>
<g clip-path="url(#clip2_720_8385)">
<path d="M144.108 10.464L152.431 13.5893L149.305 21.9118L140.983 18.7865L144.108 10.464ZM173.491 33.3684C173.284 33.9202 172.866 34.3671 172.33 34.6108C171.793 34.8545 171.181 34.8749 170.63 34.6677L166.468 33.1051L162.562 43.5082C162.147 44.6118 161.311 45.5056 160.238 45.9929C159.164 46.4803 157.941 46.5212 156.838 46.1068L146.435 42.2001L144.872 46.3614C144.665 46.9132 144.247 47.3601 143.71 47.6037C143.173 47.8474 142.562 47.8679 142.01 47.6607C141.458 47.4534 141.011 47.0355 140.768 46.4988C140.524 45.9621 140.503 45.3505 140.711 44.7987L142.273 40.6375L133.951 37.5121L132.388 41.6734C132.181 42.2252 131.763 42.6721 131.226 42.9158C130.69 43.1594 130.078 43.1799 129.526 42.9727C128.974 42.7654 128.527 42.3475 128.284 41.8108C128.04 41.2741 128.02 40.6625 128.227 40.1107L129.79 35.9495L119.386 32.0428C118.283 31.6284 117.389 30.7925 116.902 29.719C116.414 28.6456 116.373 27.4225 116.788 26.3189L120.695 15.9158L116.533 14.3531C115.981 14.1459 115.535 13.7279 115.291 13.1912C115.047 12.6545 115.027 12.043 115.234 11.4911C115.441 10.9393 115.859 10.4924 116.396 10.2488C116.933 10.0051 117.544 9.98462 118.096 10.1918L122.257 11.7545L125.382 3.432L121.221 1.86934C120.669 1.66212 120.223 1.24418 119.979 0.707453C119.735 0.170733 119.715 -0.440801 119.922 -0.992618C120.129 -1.54443 120.547 -1.99133 121.084 -2.235C121.621 -2.47866 122.232 -2.49913 122.784 -2.29191L126.945 -0.729248L130.852 -11.1324C131.266 -12.236 132.102 -13.1298 133.176 -13.6171C134.249 -14.1045 135.472 -14.1454 136.576 -13.731L146.979 -9.82431L148.542 -13.9856C148.749 -14.5374 149.167 -14.9843 149.703 -15.2279C150.24 -15.4716 150.852 -15.4921 151.403 -15.2849C151.955 -15.0776 152.402 -14.6597 152.646 -14.123C152.89 -13.5862 152.91 -12.9747 152.703 -12.4229L151.14 -8.26164L159.463 -5.13632L161.025 -9.29757C161.233 -9.84938 161.65 -10.2963 162.187 -10.5399C162.724 -10.7836 163.335 -10.8041 163.887 -10.5969C164.439 -10.3896 164.886 -9.9717 165.13 -9.43497C165.373 -8.89825 165.394 -8.28672 165.187 -7.7349L163.624 -3.57365L174.027 0.333008C175.131 0.747451 176.024 1.58334 176.512 2.65678C176.999 3.73022 177.04 4.95329 176.626 6.05692L172.719 16.4601L176.88 18.0227C177.432 18.2299 177.879 18.6479 178.123 19.1846C178.366 19.7213 178.387 20.3329 178.179 20.8847C177.972 21.4365 177.554 21.8834 177.018 22.1271C176.481 22.3707 175.869 22.3912 175.318 22.184L171.156 20.6213L168.031 28.9438L172.192 30.5065C172.744 30.7137 173.191 31.1316 173.435 31.6684C173.678 32.2051 173.699 32.8166 173.491 33.3684ZM157.373 13.0714C157.58 12.5195 157.56 11.908 157.316 11.3713C157.073 10.8346 156.626 10.4166 156.074 10.2094L143.59 5.52141C143.038 5.31419 142.427 5.33466 141.89 5.57832C141.353 5.82199 140.935 6.26889 140.728 6.8207L136.04 19.3045C135.833 19.8563 135.853 20.4678 136.097 21.0045C136.341 21.5412 136.788 21.9592 137.34 22.1664L149.823 26.8544C150.375 27.0616 150.987 27.0412 151.523 26.7975C152.06 26.5538 152.478 26.1069 152.685 25.5551L157.373 13.0714Z" fill="#3C9673"/>
</g>
<rect x="375.902" y="142.313" width="94.5894" height="94.5894" rx="9.95678" transform="rotate(-24.4175 375.902 142.313)" fill="white" stroke="#3C9673" stroke-width="4.97839"/>
<g clip-path="url(#clip3_720_8385)">
<path d="M447.347 140.302C434.607 135.518 422.44 137.592 419.649 145.023L411.117 167.744C408.327 175.175 416.121 184.745 428.861 189.529C441.601 194.314 453.767 192.24 456.558 184.808L465.09 162.088C467.881 154.656 460.087 145.086 447.347 140.302ZM457.037 172.026C456.182 174.303 453.446 175.924 449.53 176.476C445.122 177.097 439.8 176.355 434.549 174.383C429.297 172.41 424.802 169.467 421.892 166.097C419.308 163.104 418.315 160.082 419.17 157.806L420.649 153.867C423.353 158.934 429.4 163.808 437.393 166.809C445.385 169.81 453.149 170.112 458.516 168.088L457.037 172.026ZM445.264 187.837C440.856 188.458 435.534 187.715 430.283 185.743C425.031 183.771 420.536 180.827 417.626 177.458C415.042 174.465 414.049 171.443 414.904 169.166L416.383 165.228C419.087 170.294 425.134 175.168 433.127 178.169C441.119 181.171 448.883 181.472 454.25 179.448L452.771 183.386C451.916 185.663 449.18 187.284 445.264 187.837Z" fill="#3C9673"/>
</g>
<rect x="1127.92" y="211.695" width="94.5894" height="94.5894" rx="9.95678" transform="rotate(-24.4175 1127.92 211.695)" fill="white" stroke="#3C9673" stroke-width="4.97839"/>
<g clip-path="url(#clip4_720_8385)">
<path d="M1199.37 209.684C1186.63 204.899 1174.46 206.974 1171.67 214.405L1163.14 237.125C1160.35 244.557 1168.14 254.127 1180.88 258.911C1193.62 263.695 1205.79 261.621 1208.58 254.19L1217.11 231.469C1219.9 224.038 1212.11 214.468 1199.37 209.684ZM1209.06 241.407C1208.2 243.684 1205.47 245.306 1201.55 245.858C1197.14 246.479 1191.82 245.736 1186.57 243.764C1181.32 241.792 1176.82 238.848 1173.91 235.479C1171.33 232.486 1170.34 229.464 1171.19 227.187L1172.67 223.249C1175.37 228.315 1181.42 233.189 1189.41 236.191C1197.41 239.192 1205.17 239.494 1210.54 237.469L1209.06 241.407ZM1197.29 257.218C1192.88 257.839 1187.56 257.097 1182.3 255.124C1177.05 253.152 1172.56 250.208 1169.65 246.839C1167.06 243.846 1166.07 240.824 1166.92 238.547L1168.4 234.609C1171.11 239.676 1177.16 244.55 1185.15 247.551C1193.14 250.552 1200.9 250.854 1206.27 248.83L1204.79 252.768C1203.94 255.044 1201.2 256.666 1197.29 257.218Z" fill="#3C9673"/>
</g>
</g>
<g opacity="0.6">
<circle cx="284.626" cy="213.525" r="25.9057" transform="rotate(44.82 284.626 213.525)" fill="#3C9673" stroke="#3C9673" stroke-width="2.40984"/>
<circle cx="-22.6142" cy="49.2007" r="25.9057" transform="rotate(44.82 -22.6142 49.2007)" fill="white" stroke="#3C9673" stroke-width="2.40984"/>
<circle cx="586.743" cy="374.458" r="25.9057" transform="rotate(44.82 586.743 374.458)" fill="white" stroke="#3C9673" stroke-width="2.40984"/>
<rect x="207.381" y="-1.19525" width="45.7869" height="45.7869" rx="4.81967" transform="rotate(-0.180007 207.381 -1.19525)" fill="white" stroke="#3C9673" stroke-width="2.40984"/>
<rect x="66.3879" y="138.977" width="45.7869" height="45.7869" rx="4.81967" transform="rotate(-0.180007 66.3879 138.977)" fill="white" stroke="#3C9673" stroke-width="2.40984"/>
<rect x="379.594" y="304.135" width="45.7869" height="45.7869" rx="4.81967" transform="rotate(-0.180007 379.594 304.135)" fill="white" stroke="#3C9673" stroke-width="2.40984"/>
<line x1="321.707" y1="248.86" x2="367.891" y2="294.755" stroke="#33896C" stroke-opacity="0.09" stroke-width="3.61475"/>
<line x1="13.6119" y1="83.6861" x2="59.7961" y2="129.581" stroke="#33896C" stroke-opacity="0.09" stroke-width="3.61475"/>
<line x1="262.006" y1="61.1794" x2="262.21" y2="126.289" stroke="#33896C" stroke-opacity="0.09" stroke-width="3.61475"/>
<line x1="124.972" y1="195.451" x2="190.081" y2="195.246" stroke="#33896C" stroke-opacity="0.09" stroke-width="3.61475"/>
<line x1="468.759" y1="331.545" x2="533.869" y2="331.34" stroke="#33896C" stroke-opacity="0.09" stroke-width="3.61475"/>
</g>
<g opacity="0.6">
<circle cx="27.1107" cy="27.1107" r="25.9057" transform="matrix(-1 0 0 1 1019.49 120.672)" fill="#3C9673" stroke="#3C9673" stroke-width="2.40984"/>
<circle cx="27.1107" cy="27.1107" r="25.9057" transform="matrix(-1 0 0 1 691.754 21.8689)" fill="white" stroke="#3C9673" stroke-width="2.40984"/>
<circle cx="27.1107" cy="27.1107" r="25.9057" transform="matrix(-1 0 0 1 690.549 217.066)" fill="white" stroke="#3C9673" stroke-width="2.40984"/>
<rect x="-1.70401" width="45.7869" height="45.7869" rx="4.81967" transform="matrix(-0.707107 -0.707107 -0.707107 0.707107 1197.32 48.7197)" fill="white" stroke="#3C9673" stroke-width="2.40984"/>
<rect x="-1.70401" width="45.7869" height="45.7869" rx="4.81967" transform="matrix(-0.707107 -0.707107 -0.707107 0.707107 1198.53 247.531)" fill="white" stroke="#3C9673" stroke-width="2.40984"/>
<rect x="-1.70401" width="45.7869" height="45.7869" rx="4.81967" transform="matrix(-0.707107 -0.707107 -0.707107 0.707107 859.943 143.908)" fill="white" stroke="#3C9673" stroke-width="2.40984"/>
<line y1="-1.80738" x2="65.1102" y2="-1.80738" transform="matrix(-1 0 0 1 941.172 148.516)" stroke="#33896C" stroke-opacity="0.09" stroke-width="3.61475"/>
<line y1="-1.80738" x2="65.1102" y2="-1.80738" transform="matrix(-0.707107 0.707107 0.707107 0.707107 1117.09 56.9426)" stroke="#33896C" stroke-opacity="0.09" stroke-width="3.61475"/>
<line y1="-1.80738" x2="65.1102" y2="-1.80738" transform="matrix(-0.707107 0.707107 0.707107 0.707107 777.303 169)" stroke="#33896C" stroke-opacity="0.09" stroke-width="3.61475"/>
<line y1="-1.80738" x2="65.1102" y2="-1.80738" transform="matrix(-0.707107 -0.707107 -0.707107 0.707107 1117.09 248.778)" stroke="#33896C" stroke-opacity="0.09" stroke-width="3.61475"/>
<line y1="-1.80738" x2="65.1102" y2="-1.80738" transform="matrix(-0.707107 -0.707107 -0.707107 0.707107 777.303 102.982)" stroke="#33896C" stroke-opacity="0.09" stroke-width="3.61475"/>
</g>
</g>
<defs>
<linearGradient id="paint0_linear_720_8385" x1="5.23694e-08" y1="172.5" x2="1246.63" y2="158.425" gradientUnits="userSpaceOnUse">
<stop stop-color="#104835" stop-opacity="0.3"/>
<stop offset="0.44" stop-color="#3C9673" stop-opacity="0.1"/>
</linearGradient>
<clipPath id="clip0_720_8385">
<rect width="1211" height="346" fill="white"/>
</clipPath>
<clipPath id="clip1_720_8385">
<rect width="64.7191" height="64.7191" fill="white" transform="translate(851.66 80.6055) rotate(20.5825)"/>
</clipPath>
<clipPath id="clip2_720_8385">
<rect width="64.7191" height="64.7191" fill="white" transform="translate(126.187 -24.7546) rotate(20.5825)"/>
</clipPath>
<clipPath id="clip3_720_8385">
<rect width="64.7191" height="64.7191" fill="white" transform="translate(419.186 123.245) rotate(20.5825)"/>
</clipPath>
<clipPath id="clip4_720_8385">
<rect width="64.7191" height="64.7191" fill="white" transform="translate(1171.21 192.627) rotate(20.5825)"/>
</clipPath>
</defs>
</svg>
