<svg width="1210" height="346" viewBox="0 0 1210 346" fill="none" xmlns="http://www.w3.org/2000/svg">
<g clip-path="url(#clip0_597_8266)">
<rect width="1211" height="346" fill="white"/>
<g opacity="0.05">
<circle cx="872.18" cy="121.548" r="53.5177" transform="rotate(20.5825 872.18 121.548)" fill="#1677FF" stroke="#1677FF" stroke-width="4.97839"/>
<g clip-path="url(#clip1_597_8266)">
<path d="M869.583 115.824L877.905 118.95L874.78 127.272L866.458 124.147L869.583 115.824ZM898.966 138.729C898.759 139.281 898.341 139.727 897.804 139.971C897.268 140.215 896.656 140.235 896.104 140.028L891.943 138.465L888.036 148.869C887.622 149.972 886.786 150.866 885.713 151.353C884.639 151.841 883.416 151.882 882.313 151.467L871.909 147.56L870.347 151.722C870.14 152.274 869.722 152.72 869.185 152.964C868.648 153.208 868.037 153.228 867.485 153.021C866.933 152.814 866.486 152.396 866.242 151.859C865.999 151.322 865.978 150.711 866.186 150.159L867.748 145.998L859.426 142.872L857.863 147.034C857.656 147.586 857.238 148.032 856.701 148.276C856.164 148.52 855.553 148.54 855.001 148.333C854.449 148.126 854.002 147.708 853.759 147.171C853.515 146.634 853.495 146.023 853.702 145.471L855.264 141.31L844.861 137.403C843.758 136.989 842.864 136.153 842.377 135.079C841.889 134.006 841.848 132.783 842.263 131.679L846.169 121.276L842.008 119.713C841.456 119.506 841.009 119.088 840.766 118.552C840.522 118.015 840.502 117.403 840.709 116.851C840.916 116.3 841.334 115.853 841.871 115.609C842.407 115.365 843.019 115.345 843.571 115.552L847.732 117.115L850.857 108.792L846.696 107.23C846.144 107.022 845.697 106.605 845.454 106.068C845.21 105.531 845.19 104.92 845.397 104.368C845.604 103.816 846.022 103.369 846.559 103.125C847.095 102.882 847.707 102.861 848.259 103.068L852.42 104.631L856.327 94.228C856.741 93.1243 857.577 92.2305 858.65 91.7432C859.724 91.2559 860.947 91.2149 862.051 91.6294L872.454 95.536L874.016 91.3748C874.224 90.823 874.642 90.3761 875.178 90.1324C875.715 89.8887 876.327 89.8683 876.878 90.0755C877.43 90.2827 877.877 90.7006 878.121 91.2374C878.364 91.7741 878.385 92.3856 878.178 92.9374L876.615 97.0987L884.937 100.224L886.5 96.0628C886.707 95.511 887.125 95.0641 887.662 94.8204C888.199 94.5767 888.81 94.5563 889.362 94.7635C889.914 94.9707 890.361 95.3886 890.604 95.9254C890.848 96.4621 890.869 97.0736 890.661 97.6254L889.099 101.787L899.502 105.693C900.605 106.108 901.499 106.944 901.987 108.017C902.474 109.091 902.515 110.314 902.1 111.417L898.194 121.82L902.355 123.383C902.907 123.59 903.354 124.008 903.597 124.545C903.841 125.082 903.862 125.693 903.654 126.245C903.447 126.797 903.029 127.244 902.492 127.487C901.956 127.731 901.344 127.752 900.792 127.544L896.631 125.982L893.506 134.304L897.667 135.867C898.219 136.074 898.666 136.492 898.909 137.029C899.153 137.565 899.174 138.177 898.966 138.729ZM882.848 118.432C883.055 117.88 883.035 117.268 882.791 116.732C882.547 116.195 882.101 115.777 881.549 115.57L869.065 110.882C868.513 110.675 867.902 110.695 867.365 110.939C866.828 111.182 866.41 111.629 866.203 112.181L861.515 124.665C861.308 125.217 861.328 125.828 861.572 126.365C861.816 126.902 862.263 127.32 862.814 127.527L875.298 132.215C875.85 132.422 876.461 132.401 876.998 132.158C877.535 131.914 877.953 131.467 878.16 130.915L882.848 118.432Z" fill="white"/>
</g>
<circle cx="146.706" cy="16.188" r="53.5177" transform="rotate(20.5825 146.706 16.188)" fill="white" stroke="#1677FF" stroke-width="4.97839"/>
<g clip-path="url(#clip2_597_8266)">
<path d="M144.109 10.4642L152.432 13.5895L149.306 21.912L140.984 18.7867L144.109 10.4642ZM173.493 33.3687C173.285 33.9205 172.867 34.3674 172.331 34.611C171.794 34.8547 171.182 34.8752 170.631 34.6679L166.469 33.1053L162.563 43.5084C162.148 44.612 161.312 45.5058 160.239 45.9932C159.165 46.4805 157.942 46.5214 156.839 46.107L146.436 42.2003L144.873 46.3616C144.666 46.9134 144.248 47.3603 143.711 47.604C143.174 47.8476 142.563 47.8681 142.011 47.6609C141.459 47.4537 141.012 47.0357 140.769 46.499C140.525 45.9623 140.504 45.3507 140.712 44.7989L142.274 40.6377L133.952 37.5124L132.389 41.6736C132.182 42.2254 131.764 42.6723 131.227 42.916C130.691 43.1596 130.079 43.1801 129.527 42.9729C128.975 42.7657 128.529 42.3477 128.285 41.811C128.041 41.2743 128.021 40.6628 128.228 40.1109L129.791 35.9497L119.387 32.043C118.284 31.6286 117.39 30.7927 116.903 29.7193C116.415 28.6458 116.374 27.4227 116.789 26.3191L120.696 15.916L116.534 14.3533C115.982 14.1461 115.536 13.7282 115.292 13.1914C115.048 12.6547 115.028 12.0432 115.235 11.4914C115.442 10.9396 115.86 10.4927 116.397 10.249C116.934 10.0053 117.545 9.98485 118.097 10.1921L122.258 11.7547L125.384 3.43223L121.222 1.86957C120.67 1.66235 120.224 1.2444 119.98 0.707682C119.736 0.170962 119.716 -0.440572 119.923 -0.992389C120.13 -1.5442 120.548 -1.9911 121.085 -2.23477C121.622 -2.47843 122.233 -2.4989 122.785 -2.29168L126.946 -0.729019L130.853 -11.1321C131.267 -12.2358 132.103 -13.1296 133.177 -13.6169C134.25 -14.1042 135.473 -14.1452 136.577 -13.7307L146.98 -9.82408L148.543 -13.9853C148.75 -14.5371 149.168 -14.984 149.704 -15.2277C150.241 -15.4714 150.853 -15.4918 151.405 -15.2846C151.956 -15.0774 152.403 -14.6595 152.647 -14.1227C152.891 -13.586 152.911 -12.9745 152.704 -12.4227L151.141 -8.26141L159.464 -5.13609L161.026 -9.29734C161.234 -9.84915 161.651 -10.2961 162.188 -10.5397C162.725 -10.7834 163.336 -10.8039 163.888 -10.5966C164.44 -10.3894 164.887 -9.97147 165.131 -9.43475C165.374 -8.89802 165.395 -8.28649 165.188 -7.73467L163.625 -3.57342L174.028 0.333236C175.132 0.74768 176.025 1.58357 176.513 2.65701C177 3.73045 177.041 4.95352 176.627 6.05715L172.72 16.4603L176.881 18.0229C177.433 18.2302 177.88 18.6481 178.124 19.1848C178.367 19.7216 178.388 20.3331 178.181 20.8849C177.973 21.4367 177.555 21.8836 177.019 22.1273C176.482 22.3709 175.87 22.3914 175.319 22.1842L171.157 20.6215L168.032 28.944L172.193 30.5067C172.745 30.7139 173.192 31.1319 173.436 31.6686C173.679 32.2053 173.7 32.8168 173.493 33.3687ZM157.374 13.0716C157.581 12.5198 157.561 11.9082 157.317 11.3715C157.074 10.8348 156.627 10.4168 156.075 10.2096L143.591 5.52164C143.039 5.31441 142.428 5.33489 141.891 5.57855C141.354 5.82222 140.936 6.26911 140.729 6.82093L136.041 19.3047C135.834 19.8565 135.855 20.468 136.098 21.0048C136.342 21.5415 136.789 21.9594 137.341 22.1666L149.824 26.8546C150.376 27.0619 150.988 27.0414 151.524 26.7977C152.061 26.5541 152.479 26.1072 152.686 25.5553L157.374 13.0716Z" fill="#1677FF"/>
</g>
<rect x="375.902" y="142.313" width="94.5894" height="94.5894" rx="9.95678" transform="rotate(-24.4175 375.902 142.313)" fill="white" stroke="#1677FF" stroke-width="4.97839"/>
<g clip-path="url(#clip3_597_8266)">
<path d="M447.347 140.302C434.607 135.517 422.44 137.592 419.649 145.023L411.117 167.744C408.326 175.175 416.12 184.745 428.86 189.529C441.6 194.314 453.767 192.239 456.558 184.808L465.09 162.087C467.881 154.656 460.087 145.086 447.347 140.302ZM457.037 172.026C456.182 174.302 453.445 175.924 449.53 176.476C445.122 177.097 439.8 176.354 434.549 174.382C429.297 172.41 424.802 169.466 421.892 166.097C419.308 163.104 418.315 160.082 419.17 157.805L420.649 153.867C423.353 158.933 429.4 163.807 437.393 166.809C445.385 169.81 453.149 170.112 458.516 168.087L457.037 172.026ZM445.264 187.836C440.856 188.457 435.534 187.715 430.282 185.743C425.031 183.77 420.535 180.827 417.626 177.457C415.042 174.464 414.049 171.442 414.904 169.166L416.383 165.227C419.087 170.294 425.134 175.168 433.127 178.169C441.119 181.17 448.883 181.472 454.25 179.448L452.771 183.386C451.916 185.663 449.179 187.284 445.264 187.836Z" fill="#1677FF"/>
</g>
<rect x="1127.92" y="211.695" width="94.5894" height="94.5894" rx="9.95678" transform="rotate(-24.4175 1127.92 211.695)" fill="white" stroke="#1677FF" stroke-width="4.97839"/>
<g clip-path="url(#clip4_597_8266)">
<path d="M1199.37 209.683C1186.63 204.899 1174.46 206.973 1171.67 214.405L1163.14 237.125C1160.35 244.557 1168.14 254.127 1180.88 258.911C1193.62 263.695 1205.79 261.621 1208.58 254.19L1217.11 231.469C1219.9 224.038 1212.11 214.468 1199.37 209.683ZM1209.06 241.407C1208.2 243.684 1205.47 245.305 1201.55 245.858C1197.14 246.479 1191.82 245.736 1186.57 243.764C1181.32 241.792 1176.82 238.848 1173.91 235.479C1171.33 232.486 1170.34 229.464 1171.19 227.187L1172.67 223.249C1175.37 228.315 1181.42 233.189 1189.41 236.191C1197.41 239.192 1205.17 239.493 1210.54 237.469L1209.06 241.407ZM1197.29 257.218C1192.88 257.839 1187.56 257.096 1182.3 255.124C1177.05 253.152 1172.56 250.208 1169.65 246.839C1167.06 243.846 1166.07 240.824 1166.92 238.547L1168.4 234.609C1171.11 239.675 1177.16 244.549 1185.15 247.551C1193.14 250.552 1200.9 250.854 1206.27 248.829L1204.79 252.768C1203.94 255.044 1201.2 256.666 1197.29 257.218Z" fill="#1677FF"/>
</g>
</g>
<g opacity="0.6">
<circle cx="282.511" cy="215.653" r="25.9057" transform="rotate(44.82 282.511 215.653)" fill="#1677FF" stroke="#1677FF" stroke-width="2.40984"/>
<circle cx="-24.7288" cy="51.3287" r="25.9057" transform="rotate(44.82 -24.7288 51.3287)" fill="white" stroke="#1677FF" stroke-width="2.40984"/>
<circle cx="584.628" cy="376.586" r="25.9057" transform="rotate(44.82 584.628 376.586)" fill="white" stroke="#1677FF" stroke-width="2.40984"/>
<rect x="205.266" y="0.932694" width="45.7869" height="45.7869" rx="4.81967" transform="rotate(-0.180007 205.266 0.932694)" fill="white" stroke="#1677FF" stroke-width="2.40984"/>
<rect x="64.2731" y="141.105" width="45.7869" height="45.7869" rx="4.81967" transform="rotate(-0.180007 64.2731 141.105)" fill="white" stroke="#1677FF" stroke-width="2.40984"/>
<rect x="377.48" y="306.263" width="45.7869" height="45.7869" rx="4.81967" transform="rotate(-0.180007 377.48 306.263)" fill="white" stroke="#1677FF" stroke-width="2.40984"/>
<line x1="321.706" y1="248.86" x2="367.891" y2="294.755" stroke="#011E3F" stroke-opacity="0.13" stroke-width="3.61475"/>
<line x1="13.6119" y1="83.686" x2="59.7961" y2="129.581" stroke="#011E3F" stroke-opacity="0.13" stroke-width="3.61475"/>
<line x1="262.005" y1="61.1794" x2="262.21" y2="126.289" stroke="#011E3F" stroke-opacity="0.13" stroke-width="3.61475"/>
<line x1="124.971" y1="195.451" x2="190.081" y2="195.246" stroke="#011E3F" stroke-opacity="0.13" stroke-width="3.61475"/>
<line x1="468.759" y1="331.545" x2="533.869" y2="331.34" stroke="#011E3F" stroke-opacity="0.13" stroke-width="3.61475"/>
</g>
<g opacity="0.6">
<circle cx="27.1107" cy="27.1107" r="25.9057" transform="matrix(-1 0 0 1 1019.49 120.672)" fill="#1677FF" stroke="#1677FF" stroke-width="2.40984"/>
<circle cx="27.1107" cy="27.1107" r="25.9057" transform="matrix(-1 0 0 1 691.754 21.8689)" fill="white" stroke="#1677FF" stroke-width="2.40984"/>
<circle cx="27.1107" cy="27.1107" r="25.9057" transform="matrix(-1 0 0 1 690.549 217.066)" fill="white" stroke="#1677FF" stroke-width="2.40984"/>
<rect x="-1.70401" width="45.7869" height="45.7869" rx="4.81967" transform="matrix(-0.707107 -0.707107 -0.707107 0.707107 1197.32 48.7195)" fill="white" stroke="#1677FF" stroke-width="2.40984"/>
<rect x="-1.70401" width="45.7869" height="45.7869" rx="4.81967" transform="matrix(-0.707107 -0.707107 -0.707107 0.707107 1198.53 247.531)" fill="white" stroke="#1677FF" stroke-width="2.40984"/>
<rect x="-1.70401" width="45.7869" height="45.7869" rx="4.81967" transform="matrix(-0.707107 -0.707107 -0.707107 0.707107 859.943 143.908)" fill="white" stroke="#1677FF" stroke-width="2.40984"/>
<line y1="-1.80738" x2="65.1102" y2="-1.80738" transform="matrix(-1 0 0 1 941.172 148.516)" stroke="#011E3F" stroke-opacity="0.13" stroke-width="3.61475"/>
<line y1="-1.80738" x2="65.1102" y2="-1.80738" transform="matrix(-0.707107 0.707107 0.707107 0.707107 1117.09 56.9426)" stroke="#011E3F" stroke-opacity="0.13" stroke-width="3.61475"/>
<line y1="-1.80738" x2="65.1102" y2="-1.80738" transform="matrix(-0.707107 0.707107 0.707107 0.707107 777.303 169)" stroke="#011E3F" stroke-opacity="0.13" stroke-width="3.61475"/>
<line y1="-1.80738" x2="65.1102" y2="-1.80738" transform="matrix(-0.707107 -0.707107 -0.707107 0.707107 1117.09 248.778)" stroke="#011E3F" stroke-opacity="0.13" stroke-width="3.61475"/>
<line y1="-1.80738" x2="65.1102" y2="-1.80738" transform="matrix(-0.707107 -0.707107 -0.707107 0.707107 777.303 102.983)" stroke="#011E3F" stroke-opacity="0.13" stroke-width="3.61475"/>
</g>
</g>
<defs>
<clipPath id="clip0_597_8266">
<rect width="1211" height="346" fill="white"/>
</clipPath>
<clipPath id="clip1_597_8266">
<rect width="64.7191" height="64.7191" fill="white" transform="translate(851.66 80.6057) rotate(20.5825)"/>
</clipPath>
<clipPath id="clip2_597_8266">
<rect width="64.7191" height="64.7191" fill="white" transform="translate(126.187 -24.7544) rotate(20.5825)"/>
</clipPath>
<clipPath id="clip3_597_8266">
<rect width="64.7191" height="64.7191" fill="white" transform="translate(419.186 123.245) rotate(20.5825)"/>
</clipPath>
<clipPath id="clip4_597_8266">
<rect width="64.7191" height="64.7191" fill="white" transform="translate(1171.21 192.627) rotate(20.5825)"/>
</clipPath>
</defs>
</svg>
