<svg width="36" height="36" viewBox="0 0 36 36" fill="none" xmlns="http://www.w3.org/2000/svg">
<circle cx="18" cy="18" r="17.5" fill="#36BAEA"/>
<path d="M30.4712 20.2613C30.5026 20.3888 30.5085 20.5213 30.4887 20.6511C30.4689 20.781 30.4236 20.9056 30.3556 21.018C30.2876 21.1304 30.1981 21.2282 30.0922 21.306C29.9864 21.3838 29.8663 21.4399 29.7387 21.4713L26.6587 22.2213L27.4662 25.235C27.5002 25.3619 27.5089 25.4942 27.4918 25.6245C27.4746 25.7547 27.432 25.8803 27.3663 25.9941C27.3006 26.1079 27.2131 26.2076 27.1088 26.2875C27.0046 26.3674 26.8856 26.4261 26.7587 26.46C26.6745 26.4843 26.5876 26.4977 26.5 26.5C26.28 26.4998 26.0662 26.4271 25.8917 26.2931C25.7173 26.159 25.5919 25.9713 25.535 25.7588L24.57 22.1588L19.5 19.2325V25.0863L22.2075 27.7925C22.3004 27.8854 22.3741 27.9957 22.4243 28.1171C22.4746 28.2385 22.5005 28.3686 22.5005 28.5C22.5005 28.6314 22.4746 28.7615 22.4243 28.8829C22.3741 29.0043 22.3004 29.1146 22.2075 29.2075C22.1145 29.3004 22.0042 29.3741 21.8828 29.4244C21.7615 29.4747 21.6313 29.5006 21.5 29.5006C21.3686 29.5006 21.2384 29.4747 21.1171 29.4244C20.9957 29.3741 20.8854 29.3004 20.7925 29.2075L18.5 26.9138L16.2075 29.2075C16.1145 29.3004 16.0042 29.3741 15.8828 29.4244C15.7615 29.4747 15.6313 29.5006 15.5 29.5006C15.3686 29.5006 15.2384 29.4747 15.1171 29.4244C14.9957 29.3741 14.8854 29.3004 14.7925 29.2075C14.6995 29.1146 14.6258 29.0043 14.5756 28.8829C14.5253 28.7615 14.4994 28.6314 14.4994 28.5C14.4994 28.3686 14.5253 28.2385 14.5756 28.1171C14.6258 27.9957 14.6995 27.8854 14.7925 27.7925L17.5 25.0863V19.2325L12.4312 22.1588L11.4662 25.7588C11.4092 25.9715 11.2836 26.1594 11.1089 26.2934C10.9342 26.4275 10.7202 26.5001 10.5 26.5C10.4122 26.4999 10.3248 26.4885 10.24 26.4663C10.113 26.4323 9.99406 26.3737 9.88982 26.2938C9.78557 26.2138 9.69809 26.1141 9.63239 26.0003C9.56669 25.8866 9.52404 25.761 9.5069 25.6307C9.48975 25.5005 9.49843 25.3681 9.53245 25.2413L10.34 22.2275L7.25995 21.4775C7.00236 21.4142 6.78047 21.2511 6.6431 21.0242C6.50573 20.7973 6.46413 20.5251 6.52745 20.2675C6.59077 20.0099 6.75383 19.788 6.98075 19.6507C7.20767 19.5133 7.47986 19.4717 7.73745 19.535L11.4187 20.4388L16.5 17.5L11.42 14.5675L7.7387 15.4713C7.6606 15.4906 7.58041 15.5002 7.49995 15.5C7.25544 15.5002 7.01934 15.4108 6.83629 15.2486C6.65323 15.0865 6.53592 14.863 6.50652 14.6202C6.47712 14.3775 6.53767 14.1324 6.67673 13.9313C6.81579 13.7302 7.02372 13.587 7.2612 13.5288L10.3412 12.7788L9.5337 9.75876C9.46508 9.50249 9.50106 9.22946 9.63375 8.99973C9.76643 8.77 9.98494 8.60238 10.2412 8.53376C10.4975 8.46513 10.7705 8.50112 11.0002 8.6338C11.23 8.76648 11.3976 8.98499 11.4662 9.24126L12.4312 12.8413L17.5 15.7675V9.91376L14.7925 7.20751C14.6048 7.01987 14.4994 6.76537 14.4994 6.50001C14.4994 6.36861 14.5253 6.2385 14.5756 6.11711C14.6258 5.99572 14.6995 5.88542 14.7925 5.79251C14.8854 5.6996 14.9957 5.6259 15.1171 5.57561C15.2384 5.52533 15.3686 5.49945 15.5 5.49945C15.7653 5.49945 16.0198 5.60487 16.2075 5.79251L18.5 8.08626L20.7925 5.79251C20.9801 5.60487 21.2346 5.49945 21.5 5.49945C21.7653 5.49945 22.0198 5.60487 22.2075 5.79251C22.3951 5.98015 22.5005 6.23464 22.5005 6.50001C22.5005 6.76537 22.3951 7.01987 22.2075 7.20751L19.5 9.91376V15.7675L24.5687 12.8413L25.5337 9.24126C25.6023 8.98499 25.7699 8.76648 25.9997 8.6338C26.2294 8.50112 26.5024 8.46513 26.7587 8.53376C27.015 8.60238 27.2335 8.77 27.3662 8.99973C27.4988 9.22946 27.5348 9.50249 27.4662 9.75876L26.6587 12.7725L29.7387 13.5225C29.9828 13.5746 30.1986 13.7162 30.3437 13.9193C30.4887 14.1225 30.5526 14.3725 30.5226 14.6203C30.4927 14.8681 30.3712 15.0958 30.182 15.2586C29.9927 15.4214 29.7495 15.5075 29.5 15.5C29.4195 15.5002 29.3393 15.4906 29.2612 15.4713L25.58 14.5675L20.5 17.5L25.58 20.4325L29.2612 19.5288C29.3887 19.4974 29.5212 19.4914 29.6511 19.5113C29.7809 19.5311 29.9056 19.5763 30.0179 19.6443C30.1303 19.7124 30.2282 19.8019 30.3059 19.9077C30.3837 20.0136 30.4399 20.1337 30.4712 20.2613Z" fill="white"/>
</svg>
