<?xml version="1.0" standalone="no"?>
<!DOCTYPE svg PUBLIC "-//W3C//DTD SVG 20010904//EN"
 "http://www.w3.org/TR/2001/REC-SVG-20010904/DTD/svg10.dtd">
<svg version="1.0" xmlns="http://www.w3.org/2000/svg"
 width="250.000000pt" height="250.000000pt" viewBox="0 0 250.000000 250.000000"
 preserveAspectRatio="xMidYMid meet">

<g transform="translate(0.000000,250.000000) scale(0.100000,-0.100000)"
fill="#a100d7" stroke="none">
<path d="M1026 2384 c-312 -62 -597 -249 -763 -502 -68 -104 -137 -251 -165
-357 -25 -91 -35 -331 -19 -435 65 -418 366 -768 791 -918 135 -47 239 -65
385 -65 185 -1 332 36 517 129 329 165 556 458 627 811 84 410 -104 871 -455
1122 -153 109 -326 185 -492 217 -93 18 -333 17 -426 -2z m398 -139 c171 -35
342 -113 465 -212 96 -77 151 -140 224 -256 118 -187 163 -351 153 -557 -6
-145 -20 -209 -73 -340 -118 -293 -374 -506 -723 -603 -61 -17 -104 -21 -230
-21 -147 0 -161 2 -259 33 -137 43 -209 76 -311 146 -260 177 -384 361 -441
657 -10 54 -19 127 -19 162 0 172 67 388 169 542 157 237 378 383 681 448 88
19 273 20 364 1z"/>
<path d="M1200 1940 l-565 -5 0 -670 0 -669 93 -73 c51 -40 97 -73 102 -73 5
0 10 206 12 483 l3 482 31 66 c78 164 207 245 382 237 73 -3 98 -8 154 -35 76
-36 155 -108 187 -171 48 -95 51 -127 51 -604 0 -246 3 -448 8 -448 27 0 189
131 197 158 7 30 -6 1298 -14 1310 -11 16 -68 17 -641 12z"/>
<path d="M420 1575 c-20 -21 -22 -30 -14 -52 13 -38 54 -52 88 -29 30 19 34
51 10 84 -20 29 -55 28 -84 -3z"/>
<path d="M2005 1575 c-30 -30 -31 -49 -4 -76 34 -34 99 -6 99 42 0 17 -44 59
-62 59 -5 0 -20 -11 -33 -25z"/>
<path d="M1190 1558 c-27 -29 -25 -69 3 -96 31 -29 72 -28 102 3 30 30 31 54
4 89 -27 34 -79 36 -109 4z"/>
<path d="M1207 1394 c-10 -10 -8 -1006 2 -1022 5 -8 22 -12 42 -10 l34 3 0
515 0 515 -35 3 c-20 2 -39 0 -43 -4z"/>
<path d="M390 1321 c-35 -35 -39 -72 -10 -101 48 -48 120 -18 120 50 0 39 -18
62 -58 75 -17 5 -29 -1 -52 -24z"/>
<path d="M2011 1314 c-27 -35 -27 -65 2 -92 29 -27 78 -29 100 -4 23 25 22 85
-1 105 -29 26 -77 22 -101 -9z"/>
<path d="M992 1278 c-9 -9 -12 -120 -12 -440 l0 -427 30 -16 c31 -16 60 -20
61 -7 4 65 0 882 -5 890 -9 16 -59 15 -74 0z"/>
<path d="M1428 1279 c-17 -9 -18 -41 -18 -432 0 -232 3 -432 6 -445 7 -25 49
-30 78 -9 17 12 18 40 17 442 -1 289 -5 433 -13 442 -12 15 -46 16 -70 2z"/>
<path d="M417 1052 c-25 -27 -22 -78 5 -96 30 -21 50 -20 76 4 27 26 28 64 2
90 -25 25 -62 26 -83 2z"/>
<path d="M2019 1055 c-33 -18 -43 -53 -24 -82 22 -32 53 -38 84 -16 37 28 39
65 5 92 -31 25 -31 25 -65 6z"/>
</g>
</svg>
